<svg width="200" height="200" viewBox="0 0 200 200" xmlns="http://www.w3.org/2000/svg">
  <defs>
    <style>
      .shape-wrapper {
        opacity: 0;
        animation: cycleVisibility 3.5s infinite;
      }
      
      .shape-wrapper:nth-child(1) { animation-delay: 0s; }
      .shape-wrapper:nth-child(2) { animation-delay: 0.5s; }
      .shape-wrapper:nth-child(3) { animation-delay: 1s; }
      .shape-wrapper:nth-child(4) { animation-delay: 1.5s; }
      .shape-wrapper:nth-child(5) { animation-delay: 2s; }
      .shape-wrapper:nth-child(6) { animation-delay: 2.5s; }
      .shape-wrapper:nth-child(7) { animation-delay: 3s; }
      
      @keyframes cycleVisibility {
        0%, 85.71% { opacity: 0; }
        0.01%, 14.28% { opacity: 1; }
        14.29%, 100% { opacity: 0; }
      }
    </style>
  </defs>
  
  <!-- Shape 1: Diamond with square -->
  <g class="shape-wrapper" transform="translate(100, 100)">
    <g transform="translate(-50, -50) scale(5)">
      <path d="M13.6875 0C14.0527 3.32331 16.6767 5.9473 20 6.3125V13.6875C16.6767 14.0527 14.0527 16.6767 13.6875 20H6.3125C5.9473 16.6767 3.32331 14.0527 0 13.6875V6.3125C3.32331 5.9473 5.9473 3.32331 6.3125 0H13.6875ZM6.50098 6.49902V13.499H13.501V6.49902H6.50098Z" fill="black"/>
    </g>
  </g>
  
  <!-- Shape 2: Square with circle -->
  <g class="shape-wrapper" transform="translate(100, 100)">
    <g transform="translate(-50, -50) scale(5)">
      <path d="M20 20H0V0H20V20ZM9.99805 4.16602C6.77654 4.16619 4.16504 6.77845 4.16504 10C4.16526 13.2214 6.77667 15.8328 9.99805 15.833C13.2196 15.833 15.8318 13.2215 15.832 10C15.832 6.77834 13.2197 4.16602 9.99805 4.16602Z" fill="black"/>
    </g>
  </g>
  
  <!-- Shape 3: Four circles -->
  <g class="shape-wrapper" transform="translate(100, 100)">
    <g transform="translate(-50, -50) scale(5)">
      <path d="M14.9072 0C17.7198 4.14887e-05 20 2.28024 20 5.09277C19.9999 7.43388 18.4193 9.40373 16.2676 9.99902C18.4196 10.5942 20 12.5659 20 14.9072C19.9999 17.7197 17.7197 20 14.9072 20C12.5662 20 10.5945 18.42 9.99902 16.2686C9.40335 18.4197 7.43358 20 5.09277 20C2.28021 20 9.76707e-05 17.7197 0 14.9072C0 12.5662 1.57984 10.5944 3.73145 9.99902C1.5801 9.40348 8.12915e-05 7.4336 0 5.09277C0 2.28021 2.28015 0 5.09277 0C7.43337 3.45264e-05 9.40316 1.57959 9.99902 3.73047C10.5947 1.57933 12.5664 0 14.9072 0Z" fill="black"/>
    </g>
  </g>
  
  <!-- Shape 4: Gear/Star -->
  <g class="shape-wrapper" transform="translate(100, 100)">
    <g transform="translate(-50, -50) scale(5)">
      <path d="M20 12.1875L16.7601 12.2154C15.529 12.226 14.7706 13.5647 15.3945 14.6261L16.9222 17.2253L12.9089 19.5012L11.3437 16.8383C10.7283 15.7913 9.21677 15.7847 8.59218 16.8261L6.92836 19.6004L2.93736 17.2979L4.4619 14.7561C5.1047 13.6843 4.32565 12.3224 3.07597 12.3332L0.0345365 12.3594L0 7.81326L3.23991 7.78541C4.47098 7.77483 5.22937 6.43603 4.60553 5.37469L3.07776 2.77552L7.09106 0.499598L8.6563 3.16253C9.27167 4.20945 10.7832 4.21612 11.4078 3.17467L13.0716 0.400391L17.0626 2.70285L15.5383 5.24463C14.8956 6.31634 15.6746 7.6782 16.9242 7.66747L19.9655 7.64137L20 12.1875Z" fill="black"/>
    </g>
  </g>
  
  <!-- Shape 5: Hexagon -->
  <g class="shape-wrapper" transform="translate(100, 100)">
    <g transform="translate(-50, -50) scale(5)">
      <g transform="translate(1, 0)">
        <path d="M9 0L17.6603 5V15L9 20L0.339746 15V5L9 0Z" fill="black"/>
      </g>
    </g>
  </g>
  
  <!-- Shape 6: Circle with square -->
  <g class="shape-wrapper" transform="translate(100, 100)">
    <g transform="translate(-50, -50) scale(5)">
      <path d="M10 0C15.5228 0 20 4.47715 20 10C20 15.5228 15.5228 20 10 20C4.47715 20 0 15.5228 0 10C0 4.47715 4.47715 0 10 0ZM6.5625 6.5625V13.4375H13.4375V6.5625H6.5625Z" fill="black"/>
    </g>
  </g>
  
  <!-- Shape 7: 8-point star -->
  <g class="shape-wrapper" transform="translate(100, 100)">
    <g transform="translate(-50, -50) scale(5)">
      <path d="M0.183982 7.08844C-0.263624 6.32333 0.142724 5.34232 1.00024 5.11781L3.50599 4.46178C3.97388 4.33929 4.33928 3.97388 4.46178 3.50599L5.11781 1.00024C5.34232 0.142725 6.32333 -0.263625 7.08844 0.183982L9.32415 1.49193C9.74162 1.73616 10.2584 1.73616 10.6758 1.49193L12.9116 0.183982C13.6767 -0.263624 14.6577 0.142725 14.8822 1.00024L15.5382 3.50599C15.6607 3.97388 16.0261 4.33928 16.494 4.46178L18.9998 5.11781C19.8573 5.34232 20.2636 6.32333 19.816 7.08844L18.5081 9.32415C18.2638 9.74162 18.2638 10.2584 18.5081 10.6758L19.816 12.9116C20.2636 13.6767 19.8573 14.6577 18.9998 14.8822L16.494 15.5382C16.0261 15.6607 15.6607 16.0261 15.5382 16.494L14.8822 18.9998C14.6577 19.8573 13.6767 20.2636 12.9116 19.816L10.6758 18.5081C10.2584 18.2638 9.74162 18.2638 9.32415 18.5081L7.08844 19.816C6.32333 20.2636 5.34232 19.8573 5.11781 18.9998L4.46178 16.494C4.33929 16.0261 3.97388 15.6607 3.50599 15.5382L1.00024 14.8822C0.142726 14.6577 -0.263625 13.6767 0.183982 12.9116L1.49193 10.6758C1.73616 10.2584 1.73616 9.74162 1.49193 9.32415L0.183982 7.08844Z" fill="black"/>
    </g>
  </g>
</svg>
